<mxfile host="app.diagrams.net" modified="2023-04-14T04:22:58.266Z" agent="Mozilla/5.0 (Windows NT 10.0; Win64; x64) AppleWebKit/537.36 (KHTML, like Gecko) Chrome/104.0.0.0 Safari/537.36" version="21.1.7" etag="0UwG2RU_9RPCAmlbcbV3" type="github">
  <diagram name="第 1 页" id="VXe4vcmDmJAUdO-Oy9Uo">
    <mxGraphModel>
      <root>
        <mxCell id="0" />
        <mxCell id="1" parent="0" />
      </root>
    </mxGraphModel>
  </diagram>
</mxfile>
